<?xml version="1.0" encoding="UTF-8" standalone="no"?>
<!-- Created with Inkscape (http://www.inkscape.org/) -->

<svg
   width="704.60895"
   height="183.13474"
   viewBox="0 0 186.42778 48.454399"
   version="1.1"
   id="svg1"
   xml:space="preserve"
   xmlns="http://www.w3.org/2000/svg"
   xmlns:svg="http://www.w3.org/2000/svg"><defs
     id="defs1" /><g
     id="g3"
     transform="matrix(0.39881625,0,0,0.4949388,124.77304,48.531765)"
     style="stroke-width:2.2508"><g
       id="g5"
       transform="translate(-81.395224,-1.2475164)"
       style="stroke-width:2.2508"><path
         id="rect3"
         style="fill:#333333;fill-opacity:1;stroke-width:2.97765;stroke-linecap:square;stroke-miterlimit:13.9;paint-order:fill markers stroke"
         d="m 36.317139,-71.623528 h 3.620083 c 9.150215,0 16.516634,7.366419 16.516634,16.516634 v 16.979718 c 0,9.150215 -7.366419,16.516634 -16.516634,16.516634 h -3.620083 c -9.150216,0 -16.516634,-7.366419 -16.516634,-16.516634 v -16.979718 c 0,-9.150215 7.366418,-16.516634 16.516634,-16.516634 z" /><path
         id="path1"
         style="fill:#00aa00;stroke-width:2.97765;stroke-linecap:square;stroke-miterlimit:13.9;paint-order:fill markers stroke"
         d="m 38.25359,-65.375204 -0.305959,8.11e-4 a 6.2492299,6.2492299 0 0 0 -5.288915,9.247125 l 4.704663,9.510228 -4.704663,9.5105 a 6.2492299,6.2492299 0 0 0 5.288915,9.247124 l 0.305959,5.51e-4 a 6.0958731,6.0958731 0 0 0 5.520826,-8.709804 l -5.214053,-10.048368 5.214053,-10.048369 a 6.0958731,6.0958731 0 0 0 -5.520826,-8.709798 z" /></g></g><path
     style="font-size:31.319px;line-height:0.9;font-family:'DIN Condensed';-inkscape-font-specification:'DIN Condensed, ';letter-spacing:0.921315px;word-spacing:-0.131617px;fill:#333333;stroke-width:1.32292;stroke-linecap:square;stroke-miterlimit:13.9;paint-order:fill markers stroke"
     d="M 117.86741,37.066647 V 12.527879 h 2.7499 l 4.32128,14.785297 h 0.0561 V 12.527879 h 2.86214 v 24.538768 h -2.69378 l -4.37741,-14.750832 h -0.0561 v 14.750832 z"
     id="path12" /><path
     style="font-size:31.319px;line-height:0.9;font-family:'DIN Condensed';-inkscape-font-specification:'DIN Condensed, ';letter-spacing:0.921315px;word-spacing:-0.131617px;fill:#333333;stroke-width:1.32292;stroke-linecap:square;stroke-miterlimit:13.9;paint-order:fill markers stroke"
     d="m 97.044942,30.070341 v 1.516441 q 0,1.13733 -0.364786,2.171267 -0.336724,0.999472 -0.954051,1.792157 -0.617328,0.792685 -1.459135,1.275189 -0.813746,0.448039 -1.767789,0.448039 -0.813746,0 -1.655554,-0.275716 Q 90.00182,36.722001 89.32837,36.03271 88.654921,35.343419 88.205961,34.275018 87.785057,33.172152 87.785057,31.483388 V 17.97328 q 0,-1.20626 0.336723,-2.240196 0.336722,-1.033937 0.954049,-1.792158 0.617327,-0.75822 1.459135,-1.171795 0.869868,-0.448039 1.908094,-0.448039 2.02034,0 3.283047,1.619834 0.617327,0.792685 0.954051,1.895551 0.364786,1.068402 0.364786,2.34359 v 1.378583 h -2.862147 v -1.171795 q 0,-1.033937 -0.47703,-1.792157 -0.477021,-0.758221 -1.290768,-0.758221 -1.066287,0 -1.431073,0.82715 -0.336725,0.792685 -0.336725,2.033409 v 12.5451 q 0,1.068402 0.364786,1.792157 0.392847,0.723756 1.374951,0.723756 0.280603,0 0.589266,-0.103397 0.336725,-0.137858 0.617327,-0.413575 0.252542,-0.275716 0.4209,-0.75822 0.168366,-0.482504 0.168366,-1.20626 v -1.206259 z"
     id="path11" /><path
     style="font-size:31.319px;line-height:0.9;font-family:'DIN Condensed';-inkscape-font-specification:'DIN Condensed, ';letter-spacing:0.921315px;word-spacing:-0.131617px;fill:#333333;stroke-width:1.32292;stroke-linecap:square;stroke-miterlimit:13.9;paint-order:fill markers stroke"
     d="M 76.745651,37.066647 V 12.527879 h 8.530315 v 3.308598 h -5.66817 v 7.203094 H 84.5464 v 3.308597 h -4.938604 v 7.203094 h 5.66817 v 3.515385 z"
     id="path10" /><path
     style="font-size:31.319px;line-height:0.9;font-family:'DIN Condensed';-inkscape-font-specification:'DIN Condensed, ';letter-spacing:0.921315px;word-spacing:-0.131617px;fill:#333333;stroke-width:1.32292;stroke-linecap:square;stroke-miterlimit:13.9;paint-order:fill markers stroke"
     d="M 63.966518,37.066647 V 12.527879 h 4.60188 q 5.050844,0 5.050844,7.203094 0,2.171267 -0.561204,3.687708 -0.533145,1.51644 -1.908097,2.446984 l 3.086627,11.200982 H 71.206061 L 68.540338,26.58942 h -1.711675 v 10.477227 z"
     id="path9" /><path
     style="font-size:31.319px;line-height:0.9;font-family:'DIN Condensed';-inkscape-font-specification:'DIN Condensed, ';letter-spacing:0.921315px;word-spacing:-0.131617px;fill:#ffffff;stroke-width:1.32292;stroke-linecap:square;stroke-miterlimit:13.9;paint-order:fill markers stroke"
     d="m 66.828663,15.836477 v 7.651133 h 1.627494 q 0.757627,0 1.206591,-0.241252 0.448964,-0.275717 0.701506,-0.75822 0.224482,-0.482504 0.308663,-1.171796 0.08418,-0.723755 0.08418,-1.654298 0,-0.930544 -0.08418,-1.619835 -0.08418,-0.723756 -0.336723,-1.240724 -0.533145,-0.965008 -2.020338,-0.965008 z"
     id="path8" /><path
     style="font-size:31.319px;line-height:0.9;font-family:'DIN Condensed';-inkscape-font-specification:'DIN Condensed, ';letter-spacing:0.921315px;word-spacing:-0.131617px;fill:#333333;stroke-width:1.32292;stroke-linecap:square;stroke-miterlimit:13.9;paint-order:fill markers stroke"
     d="M 57.500944,37.066647 V 12.527879 h 2.862145 v 24.538768 z"
     id="path7" /><path
     style="font-size:31.319px;line-height:0.9;font-family:'DIN Condensed';-inkscape-font-specification:'DIN Condensed, ';letter-spacing:0.921315px;word-spacing:-0.131617px;fill:#333333;stroke-width:1.32292;stroke-linecap:square;stroke-miterlimit:13.9;paint-order:fill markers stroke"
     d="M 46.321257,37.066647 V 33.964836 L 51.708825,15.836477 H 46.60186 v -3.308598 h 8.221652 v 2.79163 l -5.499808,18.43854 h 5.499808 v 3.308598 z"
     id="path6" /><path
     style="font-size:31.319px;line-height:0.9;font-family:'DIN Condensed';-inkscape-font-specification:'DIN Condensed, ';letter-spacing:0.921315px;word-spacing:-0.131617px;fill:#333333;stroke-width:1.32292;stroke-linecap:square;stroke-miterlimit:13.9;paint-order:fill markers stroke"
     d="M 36.039479,37.066647 V 12.527879 h 8.530314 v 3.308598 h -5.668169 v 7.203094 h 4.938603 v 3.308597 h -4.938603 v 7.203094 h 5.668169 v 3.515385 z"
     id="text5" /></svg>
