<?xml version="1.0" encoding="UTF-8" standalone="no"?>
<!-- Created with Inkscape (http://www.inkscape.org/) -->

<svg
   width="55.248962"
   height="93.55603"
   viewBox="0 0 14.617954 24.753367"
   version="1.1"
   id="svg1"
   xml:space="preserve"
   xmlns="http://www.w3.org/2000/svg"
   xmlns:svg="http://www.w3.org/2000/svg"><defs
     id="defs1" /><g
     id="g3"
     transform="matrix(0.39881625,0,0,0.4949388,24.564975,36.066707)"
     style="stroke-width:2.2508"><g
       id="g5"
       transform="translate(-81.395224,-1.2475164)"
       style="stroke-width:2.2508"><path
         id="rect3"
         style="fill:#333333;fill-opacity:1;stroke-width:2.97765;stroke-linecap:square;stroke-miterlimit:13.9;paint-order:fill markers stroke"
         d="m 36.317139,-71.623528 h 3.620083 c 9.150215,0 16.516634,7.366419 16.516634,16.516634 v 16.979718 c 0,9.150215 -7.366419,16.516634 -16.516634,16.516634 h -3.620083 c -9.150216,0 -16.516634,-7.366419 -16.516634,-16.516634 v -16.979718 c 0,-9.150215 7.366418,-16.516634 16.516634,-16.516634 z" /><path
         id="path1"
         style="fill:#00aa00;stroke-width:2.97765;stroke-linecap:square;stroke-miterlimit:13.9;paint-order:fill markers stroke"
         d="m 38.25359,-65.375204 -0.305959,8.11e-4 a 6.2492299,6.2492299 0 0 0 -5.288915,9.247125 l 4.704663,9.510228 -4.704663,9.5105 a 6.2492299,6.2492299 0 0 0 5.288915,9.247124 l 0.305959,5.51e-4 a 6.0958731,6.0958731 0 0 0 5.520826,-8.709804 l -5.214053,-10.048368 5.214053,-10.048369 a 6.0958731,6.0958731 0 0 0 -5.520826,-8.709798 z" /></g></g></svg>
