<?xml version="1.0" encoding="UTF-8" standalone="no"?>
<!-- Created with Inkscape (http://www.inkscape.org/) -->

<svg
   width="93.297424"
   height="128.10577"
   viewBox="0 0 24.684943 33.894653"
   version="1.1"
   id="svg1"
   xml:space="preserve"
   xmlns="http://www.w3.org/2000/svg"
   xmlns:svg="http://www.w3.org/2000/svg"><defs
     id="defs1" /><g
     id="layer1"
     transform="translate(-174.2933,-131.19873)"><g
       id="g55"
       transform="matrix(2.2196242,0,0,1.7874049,-58.469136,-197.35755)"
       style="stroke-width:0.502052"><path
         d="m 44.266118,202.93284 c 0.693066,-5.71098 1.020807,-11.39924 0.759707,-17.03568 2.676729,-0.19842 5.392724,-0.45804 8.073373,-0.73168 0.04544,0.88494 0.05141,1.75874 0.03819,2.60166 -1.791417,0.11507 -3.595087,0.22071 -5.390696,0.30593 -0.04364,1.45792 -0.202843,3.68972 -0.281149,5.10027 1.586407,-0.0186 3.173714,-0.0488 4.751759,-0.0863 -0.03901,0.80476 -0.07039,1.53227 -0.09949,2.32386 -1.580495,0.0285 -3.170349,0.0514 -4.759376,0.0654 -0.06163,1.66553 -0.07611,3.32059 -0.156011,4.99123 1.810795,-0.0144 3.628696,-0.0323 5.433545,-0.0518 -0.04517,0.81912 -0.109083,1.66161 -0.212822,2.50507 0.993377,-0.002 -9.150469,0.0137 -8.15708,0.012 z m 9.968007,-0.0151 c 0.09103,-0.75222 0.152012,-1.49997 0.196935,-2.22952 1.108286,-2.40983 4.535078,-10.21651 5.615681,-13.39731 -1.601187,0.11382 -3.240549,0.23066 -4.843909,0.33953 0.0105,-0.86334 0.0024,-1.76237 -0.04326,-2.67822 2.665067,-0.27892 5.125714,-0.54446 7.795597,-0.81206 0.03287,0.86284 0.04468,1.69903 0.04415,2.49936 -1.217207,3.79229 -4.405124,11.04825 -5.691023,13.8699 2.912604,-0.0335 2.332239,-0.027 5.244756,-0.0605 -0.0461,0.79691 -0.106797,1.61981 -0.194428,2.45496 -1.581006,0.003 -6.543475,0.0112 -8.124497,0.0138 z m 10.818869,-0.0181 c 0.234699,-2.40542 0.708342,-15.06057 0.579179,-19.02033 0.906252,-0.0855 1.811019,-0.16766 2.71772,-0.24602 0.111804,4.23739 -0.335055,16.71315 -0.563086,19.2623 -0.04976,7e-5 -2.684044,0.004 -2.733833,0.004 z M 74.62582,186.3897 c -0.02385,2.19703 -0.09276,4.57992 -0.143794,6.36963 0.512874,-0.0115 1.02527,-0.0224 1.537863,-0.0327 0.477044,-0.01 0.858734,-0.0781 1.144657,-0.2074 0.286381,-0.14692 0.512518,-0.34661 0.678079,-0.60133 0.147889,-0.25443 0.253169,-0.56464 0.315589,-0.93458 0.06287,-0.38836 0.100733,-0.83843 0.113061,-1.35691 0.01238,-0.51895 -0.0038,-0.98243 -0.04847,-1.38307 -0.0442,-0.42069 -0.143128,-0.78819 -0.296718,-1.09599 -0.326737,-0.57574 -0.95661,-0.85593 -1.894883,-0.81788 -0.468482,0.019 -0.936818,0.0391 -1.405389,0.0602 z m -3.260942,16.50118 c 0.210651,-2.7016 0.623706,-15.00456 0.543909,-19.54308 1.458958,-0.10735 2.913432,-0.2017 4.372907,-0.28145 3.219914,-0.17599 4.784041,2.46039 4.687033,6.56564 -0.02867,1.21243 -0.230391,2.18536 -0.603103,2.9705 -0.3551,0.7843 -0.972651,1.4041 -1.850118,1.87716 0.891963,2.74801 1.812308,5.4095 2.655815,8.4029 -0.01158,1e-5 -2.881905,0.002 -2.893484,0.002 -0.681536,-2.75089 -1.49066,-5.32686 -2.243284,-7.83316 -0.539609,0.008 -1.079005,0.0172 -1.618938,0.0266 -0.06662,2.32129 -0.143381,5.27513 -0.317549,7.81018 -0.02446,3e-5 -2.708714,0.003 -2.733174,0.003 z m 12.338567,-0.009 c 0.09765,-2.87286 0.405403,-15.10852 0.484825,-20.09296 2.709937,-0.0398 5.393296,-0.0205 8.099651,0.057 -0.04541,1.16755 -0.08209,2.27663 -0.112834,3.3147 -1.78477,-0.0376 -3.561146,-0.0565 -5.346888,-0.0565 0.0012,-0.0515 -0.145943,6.215 -0.14466,6.1635 1.553961,5e-5 3.100435,0.008 4.654393,0.0228 -0.0039,0.18282 -0.04948,2.33117 -0.05341,2.51399 -1.555733,-0.0115 -3.103888,-0.0173 -4.659499,-0.0173 -1.16071,50.04417 1.036126,-44.69988 -0.124055,5.3443 1.793728,-4e-5 3.578359,0.004 5.372269,0.01 -0.01257,0.88184 -0.02223,1.80015 -0.02561,2.74181 l -8.144073,-8.9e-4 z m 19.484525,-5.20019 c -0.005,0.36355 -0.008,0.73153 -0.0112,1.09769 -0.005,0.5509 -0.12125,1.08007 -0.35017,1.59005 -0.21126,0.49291 -0.50871,0.9419 -0.89337,1.34435 -0.38503,0.40264 -0.84046,0.7329 -1.36953,0.98552 -0.51231,0.23474 -1.070711,0.35415 -1.679103,0.35381 -0.518705,-2.9e-4 -1.046885,-0.0742 -1.585431,-0.22164 -0.538405,-0.14741 -1.022628,-0.4044 -1.452219,-0.76643 -0.429113,-0.36178 -0.784368,-0.81826 -1.064863,-1.36235 -0.262525,-0.56167 -0.387461,-1.26168 -0.374728,-2.09267 0.02708,-1.7675 0.149209,-8.04721 0.21236,-10.44489 0.01861,-0.70616 0.144082,-1.38516 0.377204,-2.02731 0.233029,-0.64233 0.554782,-1.21545 0.964983,-1.70349 0.410382,-0.48851 0.888819,-0.86744 1.435603,-1.12424 0.566374,-0.28002 1.176239,-0.40048 1.833402,-0.35835 1.282952,0.0822 2.270052,0.72615 3.012672,1.8245 0.36152,0.53473 0.63319,1.14736 0.81865,1.82284 0.20405,0.65573 0.29672,1.34483 0.27812,2.06129 -0.0103,0.38674 -0.0185,0.76881 -0.0266,1.14238 -0.9008,-0.0363 -1.79913,-0.0706 -2.69931,-0.10249 0.007,-0.32145 0.0149,-0.64905 0.0229,-0.98047 0.0149,-0.58551 -0.11909,-1.11595 -0.40375,-1.58272 -0.285232,-0.46793 -0.680214,-0.722 -1.192613,-0.74533 -0.670935,-0.0305 -1.128641,0.20772 -1.374428,0.69981 -0.226765,0.47029 -0.349711,1.06928 -0.367302,1.77542 -0.05154,2.06813 -0.160052,8.01914 -0.181149,9.58864 -0.0071,0.52294 0.103536,0.96661 0.331372,1.32829 0.245967,0.36225 0.679814,0.5468 1.301354,0.55139 0.177558,8.9e-4 0.363908,-0.0231 0.559299,-0.0732 0.213155,-0.0671 0.408526,-0.16856 0.586446,-0.30373 0.160151,-0.13532 0.293921,-0.32151 0.401861,-0.55752 0.10791,-0.23598 0.16345,-0.53054 0.16725,-0.8826 0.003,-0.29281 0.007,-0.58643 0.0104,-0.87767 0.90401,0.0128 1.80631,0.0266 2.71121,0.0412 z m 15.42043,5.23639 c -0.11481,-1.50922 -0.0628,-15.5635 0.1694,-17.92327 0.86261,0.0917 1.72837,0.1827 2.59065,0.27102 0.79365,3.31327 2.91332,8.15279 3.97914,10.87777 l 0.0543,5e-4 c 0.0489,-3.41394 -0.26737,-6.87536 0.0898,-10.4791 0.89833,0.0807 1.79792,0.15661 2.6965,0.22581 -0.53829,5.64499 -0.47143,11.32734 -0.029,17.04205 -0.056,-7e-5 -2.52031,-0.004 -2.57627,-0.004 -0.75148,-1.56204 -3.58472,-8.7511 -4.22378,-10.344 -3e-5,0 -0.0538,-0.002 -0.0539,-0.002 0.0174,3.4986 -0.2408,6.79678 0.0388,10.3387 -0.14586,-2.5e-4 -2.58979,-0.004 -2.73565,-0.004 z"
         id="text3"
         style="font-size:26.8298px;line-height:0.9;font-family:'DIN Condensed';-inkscape-font-specification:'DIN Condensed, Normal';letter-spacing:0.926042px;word-spacing:-0.132292px;fill:#333333;stroke-width:0.23496;stroke-linecap:square;stroke-linejoin:round;stroke-miterlimit:13.9;paint-order:fill markers stroke"
         aria-label="EZIRECON" /><g
         id="g15"
         transform="matrix(0.98114382,0,0,1.0802944,-28.017372,47.402779)"
         style="stroke:none;stroke-width:0.487655"><path
           id="rect12"
           style="fill:#333333;stroke:none;stroke-width:0.228222;stroke-linecap:square;stroke-linejoin:round;stroke-miterlimit:13.9;paint-order:fill markers stroke"
           d="m 140.60871,126.27549 h 1.21708 c 2.75454,0 4.96045,1.55669 4.94599,3.49033 l -0.0791,10.57295 c -0.0145,1.93364 -2.26703,3.49032 -5.05062,3.49032 h -1.22991 c -2.78358,0 -5.00243,-1.55668 -4.97501,-3.49032 l 0.14993,-10.57295 c 0.0274,-1.93364 2.26705,-3.49033 5.0216,-3.49033 z" /><g
           id="g16"
           style="fill:#0000ff;stroke:none;stroke-width:0.487655"
           transform="translate(0.37817459,-0.09454365)"><g
             id="g54"
             style="fill:#0000ff;stroke-width:0.487655"><path
               style="fill:#0000ff;stroke:none;stroke-width:0.265337;stroke-linecap:square;stroke-linejoin:round;stroke-miterlimit:13.9;paint-order:fill markers stroke"
               d="m 139.67915,126.50674 c 0.5637,-0.0135 1.1285,0.10458 1.62467,0.33946 0.4963,0.23487 0.92299,0.58609 1.22729,1.01022 0.30446,0.42413 0.48579,0.92024 0.52147,1.42697 0.0357,0.50674 -0.0746,1.02298 -0.31712,1.48489 -0.41149,0.78287 -1.1668,1.36875 -1.84827,1.98347 -0.34093,0.30736 -0.66964,0.62938 -0.93223,0.99332 -0.2627,0.36396 -0.45821,0.7733 -0.51138,1.20201 -0.057,0.45996 0.0522,0.92546 0.24936,1.3496 0.19734,0.42415 0.48034,0.81098 0.78132,1.18217 0.60235,0.7424 1.29946,1.4615 1.56795,2.35039 0.2391,0.79082 0.0996,1.67165 -0.37745,2.38069 -0.47749,0.70906 -1.16598,1.23847 -2.06568,1.42765"
               id="path12"
               transform="matrix(0.73980123,0,-0.01740707,1,40.144647,-0.01326194)" /><path
               style="fill:#0000ff;stroke:none;stroke-width:0.265337;stroke-linecap:square;stroke-linejoin:round;stroke-miterlimit:13.9;paint-order:fill markers stroke"
               d="m 139.07665,126.50303 c 0.56315,-0.0128 1.13177,0.10589 1.63565,0.34139 0.50402,0.23549 0.9423,0.58728 1.26065,1.01186 0.31852,0.42458 0.51634,0.92102 0.56892,1.4279 0.0526,0.5069 -0.0404,1.02313 -0.26744,1.48487 -0.38519,0.78257 -1.12071,1.36769 -1.78143,1.98174 -0.33054,0.30702 -0.64837,0.62873 -0.89867,0.99244 -0.25041,0.36372 -0.4321,0.77291 -0.47082,1.20166 -0.0415,0.45998 0.0834,0.92572 0.29487,1.35019 0.21164,0.42447 0.50768,0.81173 0.82116,1.18337 0.6274,0.74329 1.34876,1.4634 1.6474,2.35283 0.26596,0.79129 0.15653,1.67215 -0.29626,2.38077 -0.45318,0.70863 -1.13068,1.23657 -2.02374,1.42467"
               id="path13"
               transform="matrix(-0.73970972,-0.01163602,-0.01572857,0.9998763,246.43669,1.6286918)" /></g></g></g></g></g></svg>
